<svg width="25" height="24" viewBox="0 0 25 24" fill="none" xmlns="http://www.w3.org/2000/svg">
<path fill-rule="evenodd" clip-rule="evenodd" d="M20.9791 18.25C20.9182 18.2044 20.8552 18.1616 20.7901 18.1216C20.7666 18.1071 20.7428 18.0931 20.7188 18.0794C20.6886 18.0622 20.6581 18.0456 20.6271 18.0296C20.5829 18.0068 20.538 17.9852 20.4923 17.965C20.4133 17.93 20.3323 17.899 20.2494 17.8721C20.1609 17.8435 20.0703 17.8196 19.9778 17.8008C19.8142 17.7675 19.6448 17.75 19.4713 17.75C18.9055 17.75 18.3834 17.936 17.9633 18.25H20.9791ZM9.15502 17.8027C9.14078 17.8057 9.12657 17.8088 9.11241 17.812C9.02494 17.8317 8.93922 17.856 8.85551 17.8845C8.79271 17.906 8.73106 17.9298 8.67065 17.9559C8.60541 17.9841 8.54162 18.015 8.47939 18.0484C8.46274 18.0573 8.44621 18.0664 8.4298 18.0757C8.40357 18.0906 8.37765 18.1059 8.35202 18.1216C8.28702 18.1616 8.22402 18.2045 8.16308 18.25C7.55285 18.7061 7.1579 19.4322 7.1579 20.25C7.1579 21.6307 8.28299 22.75 9.67085 22.75C11.0587 22.75 12.1838 21.6307 12.1838 20.25C12.1838 19.4322 11.7891 18.7061 11.1789 18.25H8.16308C8.22402 18.2045 8.28702 18.1616 8.35202 18.1216C8.37765 18.1059 8.40357 18.0906 8.4298 18.0757C8.44621 18.0664 8.46274 18.0573 8.47939 18.0484C8.54162 18.015 8.60541 17.9841 8.67065 17.9559C8.73106 17.9298 8.79271 17.906 8.85551 17.8845C8.95278 17.8514 9.05277 17.824 9.15502 17.8027ZM9.67085 19.75C9.39328 19.75 9.16826 19.9739 9.16826 20.25C9.16826 20.5261 9.39328 20.75 9.67085 20.75C9.94842 20.75 10.1734 20.5261 10.1734 20.25C10.1734 19.9739 9.94842 19.75 9.67085 19.75Z" fill="white" fill-opacity="0.74"/>
<path fill-rule="evenodd" clip-rule="evenodd" d="M20.7901 18.1216C20.7666 18.1071 20.7428 18.0931 20.7188 18.0794C20.6886 18.0622 20.6581 18.0456 20.6271 18.0296C20.6827 18.0583 20.7371 18.089 20.7901 18.1216Z" fill="white" fill-opacity="0.74"/>
<path fill-rule="evenodd" clip-rule="evenodd" d="M2.13201 0.5C1.57686 0.5 1.12683 0.947715 1.12683 1.5C1.12683 2.05228 1.57686 2.5 2.13201 2.5H3.59971L5.29972 9.60325L6.42976 14.4749C6.45067 14.565 6.48346 14.6499 6.52626 14.7282L7.18524 17.4816C7.29305 17.9321 7.69762 18.25 8.16308 18.25C8.22402 18.2045 8.28702 18.1616 8.35202 18.1216C8.37765 18.1059 8.40357 18.0906 8.4298 18.0757C8.44621 18.0664 8.46274 18.0573 8.47939 18.0484C8.54162 18.015 8.60541 17.9841 8.67065 17.9559C8.73106 17.9298 8.79271 17.906 8.85551 17.8845C8.93922 17.856 9.02494 17.8317 9.11241 17.812C9.12657 17.8088 9.14078 17.8057 9.15502 17.8027C9.32151 17.7682 9.49405 17.75 9.67085 17.75C10.2367 17.75 10.7588 17.936 11.1789 18.25H17.9633C18.3834 17.936 18.9055 17.75 19.4713 17.75C19.6448 17.75 19.8142 17.7675 19.9778 17.8008C20.0703 17.8196 20.1609 17.8435 20.2494 17.8721C20.3323 17.899 20.4133 17.93 20.4923 17.965C20.538 17.9852 20.5829 18.0068 20.6271 18.0296C20.6581 18.0456 20.6886 18.0622 20.7188 18.0794C20.7428 18.0931 20.7666 18.1071 20.7901 18.1216C20.8552 18.1616 20.9182 18.2044 20.9791 18.25C21.5343 18.25 21.9843 17.8023 21.9843 17.25C21.9843 16.6977 21.5343 16.25 20.9791 16.25H8.95703L8.7177 15.25H20.9791C21.4472 15.25 21.8533 14.9286 21.9586 14.4749L24.2202 4.72486C24.2891 4.42792 24.2181 4.11594 24.0274 3.87745C23.8367 3.63896 23.5471 3.5 23.2408 3.5H5.9056L5.37151 1.26838C5.2637 0.817911 4.85912 0.5 4.39366 0.5H2.13201ZM20.1795 13.25H8.23905L7.25702 9.14675L6.41111 5.5H21.9772L20.1795 13.25ZM11.1789 18.25C10.7588 17.936 10.2367 17.75 9.67085 17.75C9.49405 17.75 9.32151 17.7682 9.15502 17.8027C9.14078 17.8057 9.12657 17.8088 9.11241 17.812C9.02494 17.8317 8.93922 17.856 8.85551 17.8845C8.79271 17.906 8.73106 17.9298 8.67065 17.9559C8.60541 17.9841 8.54162 18.015 8.47939 18.0484C8.46274 18.0573 8.44621 18.0664 8.4298 18.0757C8.40357 18.0906 8.37765 18.1059 8.35202 18.1216C8.28702 18.1616 8.22402 18.2045 8.16308 18.25H11.1789Z" fill="white" fill-opacity="0.74"/>
<path fill-rule="evenodd" clip-rule="evenodd" d="M20.9791 18.25C20.9182 18.2044 20.8552 18.1616 20.7901 18.1216C20.7666 18.1071 20.7428 18.0931 20.7188 18.0794C20.6886 18.0622 20.6581 18.0456 20.6271 18.0296C20.5829 18.0068 20.538 17.9852 20.4923 17.965C20.4133 17.93 20.3323 17.899 20.2494 17.8721C20.1609 17.8435 20.0703 17.8196 19.9778 17.8008C19.8142 17.7675 19.6448 17.75 19.4713 17.75C18.9055 17.75 18.3834 17.936 17.9633 18.25H20.9791Z" fill="white" fill-opacity="0.74"/>
<path fill-rule="evenodd" clip-rule="evenodd" d="M20.9791 18.25C20.9792 18.25 20.9791 18.25 20.9791 18.25H17.9633C17.3531 18.7061 16.9584 19.4322 16.9584 20.25C16.9584 21.6307 18.0835 22.75 19.4713 22.75C20.8592 22.75 21.9843 21.6307 21.9843 20.25C21.9843 19.4322 21.5894 18.7061 20.9791 18.25ZM18.9688 20.25C18.9688 19.9739 19.1938 19.75 19.4713 19.75C19.7489 19.75 19.9739 19.9739 19.9739 20.25C19.9739 20.5261 19.7489 20.75 19.4713 20.75C19.1938 20.75 18.9688 20.5261 18.9688 20.25Z" fill="white" fill-opacity="0.74"/>
</svg>
