<svg width="24" height="24" viewBox="0 0 24 24" fill="none" xmlns="http://www.w3.org/2000/svg">
<path fill-rule="evenodd" clip-rule="evenodd" d="M15.7651 14H14.9998L14.7285 13.73C15.6779 12.59 16.2495 11.11 16.2495 9.5C16.2495 5.91 13.4303 3 9.95229 3C6.47426 3 3.65503 5.91 3.65503 9.5C3.65503 13.09 6.47426 16 9.95229 16C11.5121 16 12.9459 15.41 14.0503 14.43L14.3119 14.71V15.5L19.156 20.49L20.5995 19L15.7651 14ZM9.95229 14C7.53995 14 5.59265 11.99 5.59265 9.5C5.59265 7.01 7.53995 5 9.95229 5C12.3646 5 14.3119 7.01 14.3119 9.5C14.3119 11.99 12.3646 14 9.95229 14Z" fill="white" fill-opacity="0.74"/>
</svg>
